<?xml version="1.0" encoding="utf-8"?>
<!-- Generator: Adobe Illustrator 28.1.0, SVG Export Plug-In . SVG Version: 6.00 Build 0)  -->
<svg version="1.1" id="Layer_1" xmlns="http://www.w3.org/2000/svg" xmlns:xlink="http://www.w3.org/1999/xlink" x="0px" y="0px"
	 viewBox="0 0 1920 1080" style="enable-background:new 0 0 1920 1080;" xml:space="preserve">
<style type="text/css">
	.st0{fill:#FFFFFF;}
	.st1{fill:#C72026;}
</style>
<g>
	<path class="st0" d="M341.2,497.7l-16.61,78.92c-7.48-1.25-21.6-2.49-34.89-2.49H117.33v-8.72c39.87-3.74,41.53-4.15,41.53-29.9
		V324.91c0-38.21-1.66-38.63-41.53-41.95v-8.72c18.69,0.83,38.63,0.83,57.32,0.83s38.21,0,57.32-0.83v8.72
		c-39.87,3.32-41.95,3.74-41.95,41.95v198.95c0,26.58,11.63,35.3,53.58,35.3h20.77c34.47,0,53.16-15.78,67.29-63.55L341.2,497.7z"/>
	<path class="st0" d="M595.39,497.7l-16.61,78.92c-7.06-1.25-21.6-2.49-34.89-2.49H359.48v-8.72c39.87-3.74,41.53-4.15,41.53-29.9
		V313.7c0-25.75-1.66-26.17-41.53-29.9v-8.72h166.97c12.88,0,29.49-1.25,39.46-2.49l8.31,70.61l-9.97,1.66
		c-9.55-47.76-22.84-55.66-66.46-55.66h-65.62v126.68l63.96-0.83c24.09-0.42,29.9-6.65,31.98-35.72h10.38
		c-0.83,16.2-0.83,27.83-0.83,43.61c0,15.78,0,26.58,0.83,42.78h-10.38c-2.08-29.07-7.48-35.3-31.98-35.72l-63.96-0.83v94.7
		c0,26.58,11.63,35.3,53.58,35.3h33.23c34.47,0,53.16-15.78,66.87-63.55L595.39,497.7z"/>
	<path class="st0" d="M907.32,444.12c-31.57,1.66-36.97,9.55-36.97,40.7v40.7h24.92l2.91,6.65c-19.94,15.37-61.89,44.44-130,44.44
		c-84.73,0-146.2-55.24-146.2-145.37c0-87.22,57.73-158.66,152.02-158.66c36.13,0,73.93,9.97,96.78,21.18l9.55,74.35l-9.14,1.66
		c-13.71-65.62-55.66-82.24-96.36-82.24c-78.08,0-118.37,64.79-118.37,138.31c0,80.58,46.52,135.82,115.05,135.82
		c26.17,0,50.67-6.65,67.7-12.88v-63.96c0-31.15-5.4-39.04-51.09-40.7v-8.31c18.27,0.83,39.87,0.83,61.89,0.83
		c21.6,0,35.72,0,57.32-0.83V444.12z"/>
	<path class="st0" d="M1170.65,524.69c14.95,35.3,17.86,39.87,46.52,41.53l0,8.72c-18.27-0.83-36.55-0.83-54.83-0.83
		c-18.69,0-37.38,0-56.07,0.83v-8.72c46.52-1.66,42.37-18.28,21.6-67.29l-12.88-29.9H998.7l-24.09,61.47
		c-12.04,29.9-6.23,34.06,26.17,35.72v8.72c-14.54-0.83-27.41-0.83-41.95-0.83c-14.12,0-30.74,0-45.27,0.83v-8.72
		c22.01-1.66,32.81-7.06,39.87-24.92l92.62-235.5l-9.14-21.18c9.55-2.08,17.86-7.48,21.6-12.46h6.23L1170.65,524.69z
		 M1005.76,451.59h102.17l-53.16-125.02L1005.76,451.59z"/>
	<path class="st0" d="M1452.26,347.76l-9.55,1.66c-16.61-54.41-23.26-57.32-56.07-57.32h-49.43v232.18
		c0,38.21,10.38,39.87,50.26,41.95v8.72c-19.11-0.83-46.93-0.83-65.62-0.83s-46.52,0-65.62,0.83v-8.72
		c39.87-2.08,50.26-3.74,50.26-41.95V292.1h-49.43c-32.81,0-39.46,2.91-56.07,57.32l-9.55-1.66l14.54-75.18
		c9.97,1.25,24.09,2.49,41.53,2.49h148.69c17.86,0,31.57-1.25,41.53-2.49L1452.26,347.76z"/>
	<path class="st0" d="M1713.93,497.7l-16.61,78.92c-7.06-1.25-21.6-2.49-34.89-2.49h-184.41v-8.72c39.87-3.74,41.53-4.15,41.53-29.9
		V313.7c0-25.75-1.66-26.17-41.53-29.9v-8.72h166.97c12.88,0,29.49-1.25,39.46-2.49l8.31,70.61l-9.97,1.66
		c-9.55-47.76-22.84-55.66-66.46-55.66h-65.62v126.68l63.96-0.83c24.09-0.42,29.9-6.65,31.98-35.72h10.38
		c-0.83,16.2-0.83,27.83-0.83,43.61c0,15.78,0,26.58,0.83,42.78h-10.38c-2.08-29.07-7.48-35.3-31.98-35.72l-63.96-0.83v94.7
		c0,26.58,11.63,35.3,53.58,35.3h33.23c34.47,0,53.16-15.78,66.87-63.55L1713.93,497.7z"/>
	<path class="st1" d="M1764.61,556.68c0-11.63,8.31-20.35,19.94-20.35s20.35,8.72,20.35,20.35c0,11.63-8.72,19.94-20.35,19.94
		S1764.61,568.3,1764.61,556.68z"/>
</g>
<g>
	<path class="st0" d="M745.16,792.22l-8.6,29.78c-7.96,4.14-21.98,7.64-36.15,7.64c-32.49,0-56.06-21.18-56.06-55.74
		c0-33.44,22.14-60.84,58.29-60.84c13.85,0,28.35,3.82,37.11,8.12l3.66,28.51l-3.5,0.64c-5.26-25.16-21.34-31.53-36.95-31.53
		c-29.94,0-45.39,24.84-45.39,53.03c0,30.9,17.84,52.08,44.11,52.08c18.16,0,31.85-9.87,39.81-32.65L745.16,792.22z"/>
	<path class="st0" d="M849.8,809.74c5.73,13.54,6.85,15.29,17.84,15.93l0,3.34c-7.01-0.32-14.01-0.32-21.02-0.32
		c-7.17,0-14.33,0-21.5,0.32v-3.34c17.84-0.64,16.24-7.01,8.28-25.8l-4.94-11.47h-44.59l-9.24,23.57
		c-4.62,11.47-2.39,13.06,10.03,13.7v3.34c-5.57-0.32-10.51-0.32-16.08-0.32c-5.41,0-11.78,0-17.36,0.32v-3.34
		c8.44-0.64,12.58-2.71,15.29-9.55l35.51-90.3l-3.5-8.12c3.66-0.8,6.85-2.87,8.28-4.78h2.39L849.8,809.74z M786.57,781.71h39.18
		l-20.38-47.94L786.57,781.71z"/>
	<path class="st0" d="M910.16,778.37c14.97-1.59,29.46-12.74,29.46-31.05c0-15.45-10.35-28.35-34.72-28.35h-4.3v90.62
		c0,14.65,0.8,14.81,16.08,16.08v3.34c-7.33-0.32-14.81-0.32-21.98-0.32s-14.81,0-21.98,0.32v-3.34
		c15.29-1.27,15.93-1.43,15.93-16.08v-80.74c0-9.87-0.64-10.03-15.93-11.47v-3.34h33.28c27.07,0,46.18,10.67,46.18,32.33
		c0,22.77-21.34,32.97-41.73,34.56L910.16,778.37z"/>
	<path class="st0" d="M1000.46,825.66v3.34c-7.33-0.32-14.81-0.32-21.98-0.32s-14.81,0-21.98,0.32v-3.34
		c15.29-1.27,15.93-1.43,15.93-16.08v-76.44c0-14.65-0.64-14.81-15.93-16.08v-3.34c7.17,0.32,14.81,0.32,21.98,0.32
		s14.65,0,21.98-0.32v3.34c-15.29,1.27-16.08,1.43-16.08,16.08v76.44C984.38,824.23,985.17,824.39,1000.46,825.66z"/>
	<path class="st0" d="M1110.35,741.9l-3.66,0.64c-6.37-20.86-8.92-21.98-21.5-21.98h-18.95v89.02c0,14.65,3.98,15.29,19.27,16.08
		v3.34c-7.33-0.32-18-0.32-25.16-0.32c-7.17,0-17.84,0-25.16,0.32v-3.34c15.29-0.8,19.27-1.43,19.27-16.08v-89.02h-18.95
		c-12.58,0-15.13,1.11-21.5,21.98l-3.66-0.64l5.57-28.83c3.82,0.48,9.24,0.96,15.93,0.96h57.01c6.85,0,12.1-0.48,15.93-0.96
		L1110.35,741.9z"/>
	<path class="st0" d="M1199.06,809.74c5.73,13.54,6.85,15.29,17.84,15.93v3.34c-7.01-0.32-14.01-0.32-21.02-0.32
		c-7.17,0-14.33,0-21.5,0.32v-3.34c17.84-0.64,16.24-7.01,8.28-25.8l-4.94-11.47h-44.59l-9.24,23.57
		c-4.62,11.47-2.39,13.06,10.03,13.7v3.34c-5.57-0.32-10.51-0.32-16.08-0.32c-5.42,0-11.79,0-17.36,0.32v-3.34
		c8.44-0.64,12.58-2.71,15.29-9.55l35.51-90.3l-3.5-8.12c3.66-0.8,6.85-2.87,8.28-4.78h2.39L1199.06,809.74z M1135.83,781.71h39.18
		l-20.38-47.94L1135.83,781.71z"/>
	<path class="st0" d="M1307.83,799.39l-6.37,30.26c-2.87-0.48-8.28-0.96-13.38-0.96h-66.09v-3.34c15.29-1.43,15.93-1.59,15.93-11.47
		v-80.74c0-14.65-0.64-14.81-15.93-16.08v-3.34c7.17,0.32,14.81,0.32,21.98,0.32c7.17,0,14.65,0,21.98-0.32v3.34
		c-15.29,1.27-16.08,1.43-16.08,16.08v76.28c0,10.19,4.46,13.54,20.54,13.54h7.96c13.22,0,20.38-6.05,25.8-24.37L1307.83,799.39z"/>
</g>
</svg>
